<?xml version="1.0" encoding="UTF-8"?>
<svg id="Layer_2" data-name="Layer 2" xmlns="http://www.w3.org/2000/svg" viewBox="0 0 590.56 590.56">
  <defs>
    <style>
      .cls-1 {
        fill: #ffeedc;
      }

      .cls-2 {
        fill: none;
        stroke: #ffeedc;
        stroke-miterlimit: 10;
        stroke-width: 2px;
      }

      .cls-3 {
        fill: #0b1d36;
      }
    </style>
  </defs>
  <g id="Layer_1-2" data-name="Layer 1">
    <g>
      <rect class="cls-3" width="590.56" height="590.56" rx="112.33" ry="112.33"/>
      <g>
        <g>
          <rect class="cls-1" x="253.54" y="332.95" width="44" height="44" rx="6.54" ry="6.54"/>
          <rect class="cls-1" x="340.54" y="300.95" width="44" height="44" rx="6.66" ry="6.66"/>
          <rect class="cls-2" x="253.54" y="282.95" width="44" height="44" rx="6.66" ry="6.66"/>
          <rect class="cls-1" x="253.54" y="245.95" width="44" height="30" rx="6.62" ry="6.62"/>
          <rect class="cls-1" x="391.54" y="300.95" width="44" height="30" rx="6.66" ry="6.66"/>
          <rect class="cls-1" x="340.54" y="348.95" width="44" height="30" rx="6.54" ry="6.54"/>
          <rect class="cls-1" x="305.54" y="245.95" width="44" height="30" rx="6.62" ry="6.62"/>
          <rect class="cls-1" x="426.54" y="245.95" width="44" height="30" rx="6.62" ry="6.62"/>
          <rect class="cls-1" x="253.54" y="383.95" width="44" height="30" rx="6.54" ry="6.54"/>
          <rect class="cls-1" x="211.54" y="206.95" width="44" height="30" rx="6.62" ry="6.62" transform="translate(11.59 455.49) rotate(-90)"/>
          <rect class="cls-1" x="348.54" y="204.95" width="44" height="30" rx="6.62" ry="6.62" transform="translate(150.59 590.49) rotate(-90)"/>
          <rect class="cls-1" x="384.54" y="206.95" width="44" height="30" rx="6.62" ry="6.62" transform="translate(184.59 628.49) rotate(-90)"/>
          <rect class="cls-1" x="175.54" y="200.95" width="44" height="30" rx="6.62" ry="6.62" transform="translate(-18.41 413.49) rotate(-90)"/>
          <rect class="cls-1" x="391.54" y="278.95" width="27" height="19" rx="6.66" ry="6.66"/>
          <rect class="cls-1" x="426.54" y="278.95" width="27" height="19" rx="6.66" ry="6.66"/>
          <rect class="cls-1" x="305.54" y="417.95" width="27" height="19" rx="6.54" ry="6.54"/>
          <rect class="cls-1" x="357.54" y="278.95" width="27" height="19" rx="6.66" ry="6.66"/>
          <rect class="cls-1" x="305.54" y="353.95" width="27" height="19" rx="6.54" ry="6.54"/>
          <rect class="cls-1" x="305.54" y="385.95" width="27" height="19" rx="6.54" ry="6.54"/>
          <rect class="cls-1" x="219.54" y="278.95" width="27" height="19" rx="6.66" ry="6.66"/>
          <rect class="cls-1" x="219.54" y="251.95" width="27" height="19" rx="6.62" ry="6.62"/>
          <rect class="cls-1" x="184.54" y="347.95" width="27" height="19" rx="6.54" ry="6.54"/>
          <rect class="cls-1" x="184.54" y="317.95" width="27" height="19" rx="6.66" ry="6.66"/>
          <rect class="cls-1" x="426.54" y="215.95" width="27" height="27" rx="6.62" ry="6.62"/>
          <rect class="cls-1" x="357.54" y="247.95" width="27" height="27" rx="6.62" ry="6.62"/>
          <rect class="cls-1" x="391.54" y="247.95" width="27" height="27" rx="6.62" ry="6.62"/>
          <rect class="cls-1" x="268.54" y="419.95" width="27" height="27" rx="6.54" ry="6.54"/>
          <rect class="cls-1" x="322.54" y="215.95" width="27" height="27" rx="6.62" ry="6.62"/>
          <rect class="cls-1" x="340.54" y="383.95" width="27" height="27" rx="6.62" ry="6.62"/>
          <rect class="cls-1" x="219.54" y="383.95" width="27" height="27" rx="6.62" ry="6.62"/>
          <rect class="cls-1" x="253.54" y="215.95" width="27" height="27" rx="6.62" ry="6.62"/>
          <rect class="cls-1" x="149.54" y="215.95" width="27" height="27" rx="6.62" ry="6.62"/>
          <rect class="cls-1" x="305.54" y="313.95" width="27" height="27" rx="6.66" ry="6.66"/>
          <rect class="cls-1" x="262.54" y="290.95" width="27" height="27" rx="6.66" ry="6.66"/>
          <rect class="cls-1" x="305.54" y="280.95" width="27" height="27" rx="6.66" ry="6.66"/>
          <rect class="cls-1" x="219.54" y="313.95" width="27" height="27" rx="6.66" ry="6.66"/>
          <rect class="cls-1" x="219.54" y="348.95" width="27" height="27" rx="6.54" ry="6.54"/>
          <rect class="cls-1" x="184.54" y="278.95" width="27" height="27" rx="6.66" ry="6.66"/>
          <rect class="cls-1" x="149.54" y="247.95" width="27" height="27" rx="6.62" ry="6.62"/>
          <rect class="cls-1" x="184.54" y="247.95" width="27" height="27" rx="6.62" ry="6.62"/>
          <rect class="cls-1" x="149.54" y="278.95" width="27" height="27" rx="6.66" ry="6.66"/>
        </g>
        <g>
          <path class="cls-1" d="M74.78,242.29c6.34.96,9.25,6.54,7.79,16.18l-2.87,18.97-36.68-5.54,2.71-17.92c1.39-9.17,5.92-13.31,11.64-12.44,3.67.55,6.21,2.87,7.33,6.09,1.93-3.89,5.47-6.03,10.08-5.34ZM50.69,264.43l8.65,1.31,1.28-8.44c.63-4.14-.5-6.61-3.38-7.05s-4.64,1.6-5.26,5.74l-1.27,8.44ZM72.6,250.69c-3.09-.47-4.92,1.67-5.58,6.07l-1.5,9.9,9.06,1.37,1.5-9.9c.67-4.4-.34-6.97-3.48-7.44Z"/>
          <path class="cls-1" d="M68.07,203.28l27.07,8.95-2.46,7.45-3.22-1.06c1.68,2.84,1.94,6.28.85,9.6-2.25,6.79-7.65,10.31-16,7.55l-15.3-5.06,2.59-7.85,14.14,4.67c4.53,1.5,7.21.15,8.35-3.32,1.2-3.62-.25-7-5.23-8.65l-13.39-4.42,2.59-7.85Z"/>
          <path class="cls-1" d="M64.08,191.53c-2.36-1.09-3.31-3.82-2.02-6.6,1.29-2.79,3.9-3.86,6.2-2.79,2.5,1.16,3.46,3.88,2.16,6.67-1.29,2.79-3.99,3.81-6.35,2.72ZM72.29,194.24l3.48-7.5,25.86,12.01-3.48,7.5-25.86-12.01Z"/>
          <path class="cls-1" d="M70.41,173.43l4-7.24,34.42,19.02-4,7.24-34.42-19.02Z"/>
          <path class="cls-1" d="M96.74,132.78l32.01,22.85-4.59,6.43-2.67-1.91c.83,3.13.06,6.3-2.15,9.4-4.68,6.56-12.94,8.28-20.23,3.07-7.29-5.2-8.35-13.58-3.67-20.13,2.03-2.85,4.66-4.62,7.76-4.94l-11.26-8.04,4.8-6.73ZM112.43,153.94c-4.01-2.86-8.27-2-10.65,1.32-2.4,3.36-1.83,7.68,2.18,10.54s8.27,2,10.68-1.36c2.37-3.32,1.8-7.63-2.21-10.5Z"/>
          <path class="cls-1" d="M105.14,126.72c-1.93-1.74-2.04-4.62.02-6.91,2.06-2.28,4.86-2.54,6.75-.83,2.05,1.85,2.15,4.73.09,7.01-2.06,2.28-4.94,2.47-6.87.73ZM112.19,131.73l5.54-6.14,21.16,19.11-5.54,6.14-21.16-19.11Z"/>
          <path class="cls-1" d="M154.32,108.08l10.79,12.25-6.21,5.46-9.95-11.3c-3.05-3.46-6.04-3.65-8.78-1.23-2.98,2.63-3.52,6.35-.05,10.29l9.31,10.58-6.21,5.46-18.84-21.4,5.93-5.22,2.21,2.51c.06-3.3,1.69-6.5,4.59-9.06,5.05-4.45,11.46-4.87,17.21,1.66Z"/>
          <path class="cls-1" d="M180.01,76.73l12.61,20.12c5.63,8.98,3.36,16.16-5.35,21.61-4.58,2.87-9.73,4.53-13.94,4.1l-.37-6.78c3.11.37,7.15-.66,10.25-2.61,4.94-3.09,5.69-6.69,2.96-11.05l-.65-1.03c-.58,3.17-2.61,5.82-5.75,7.79-6.69,4.19-14.98,2.94-19.4-4.11s-1.92-15.06,4.77-19.25c3.37-2.11,6.86-2.73,10.16-1.55l-1.94-3.1,6.65-4.16ZM180.18,92.38c-2.22-3.55-6.36-4.27-10.05-1.96-3.68,2.31-4.89,6.38-2.67,9.92,2.22,3.55,6.41,4.24,10.09,1.93,3.68-2.31,4.84-6.35,2.62-9.9Z"/>
          <path class="cls-1" d="M243.34,71.3c2.03,6.08-1.61,11.21-10.86,14.31l-18.19,6.09-11.77-35.18,17.19-5.75c8.8-2.94,14.55-.79,16.38,4.69,1.18,3.52.28,6.84-2.08,9.3,4.34-.06,7.86,2.12,9.34,6.54ZM212.66,59.94l2.77,8.29,8.09-2.71c3.97-1.33,5.66-3.46,4.74-6.22-.92-2.76-3.54-3.4-7.51-2.07l-8.09,2.71ZM234.86,73.19c-.99-2.97-3.72-3.62-7.95-2.2l-9.5,3.18,2.91,8.7,9.5-3.18c4.22-1.41,6.05-3.48,5.04-6.49Z"/>
          <path class="cls-1" d="M243.72,41.94l8.1-1.63,7.74,38.55-8.11,1.63-7.74-38.55Z"/>
          <path class="cls-1" d="M262.76,63.38c-.75-8.55,5.32-15.2,14.35-15.99s16.11,4.71,16.85,13.26c.75,8.55-5.27,15.2-14.29,15.99-9.03.79-16.16-4.7-16.91-13.26ZM285.62,61.38c-.43-4.91-3.8-7.59-7.92-7.23s-7.03,3.59-6.6,8.5c.43,4.91,3.86,7.59,7.97,7.23,4.12-.36,6.97-3.59,6.54-8.5Z"/>
          <path class="cls-1" d="M298.15,60.7c.47-8.57,7.43-14.29,16.69-13.78,5.98.33,10.55,3.19,12.35,7.96l-6.59,3.08c-1.39-2.78-3.59-4.13-6.19-4.27-4.18-.23-7.62,2.5-7.9,7.47s2.84,8.07,7.02,8.3c2.59.14,4.93-.89,6.62-3.56l6.21,3.85c-2.32,4.44-7.17,6.82-13.15,6.49-9.26-.51-15.54-6.96-15.06-15.54Z"/>
          <path class="cls-1" d="M343.5,68.47l-4.67,3.06-1.44,7.12-8.1-1.64,7.79-38.55,8.11,1.64-4.41,21.82,14.11-8.83,9.66,1.95-14.03,9.49,9.42,18.67-9.82-1.98-6.62-12.75Z"/>
          <path class="cls-1" d="M359.59,80.68l4.55-4.7c1.86,2.39,5.15,4.71,8.46,5.85,3.61,1.25,5.29.77,5.81-.73,1.53-4.41-16.31-5.55-12.57-16.31,1.77-5.11,7.63-7.11,15.49-4.38,3.71,1.29,7.51,3.56,9.55,5.95l-4.53,4.65c-2.13-2.42-4.61-3.84-7.06-4.7-3.5-1.22-5.39-.64-5.88.77-1.6,4.61,16.22,5.8,12.53,16.41-1.74,5.01-7.63,6.94-15.69,4.15-4.56-1.58-8.73-4.43-10.66-6.95Z"/>
          <path class="cls-1" d="M405.21,86c4.4-7.37,13.21-9.21,21-4.56,7.78,4.65,10.3,13.25,5.9,20.62-4.4,7.37-13.17,9.23-20.95,4.59-7.78-4.65-10.34-13.28-5.94-20.65ZM424.91,97.76c2.53-4.23,1.36-8.38-2.18-10.5s-7.8-1.2-10.33,3.03c-2.53,4.23-1.32,8.41,2.23,10.53s7.76,1.17,10.28-3.06Z"/>
          <path class="cls-1" d="M452.4,100.78l5.78,4.48-3.9,5.03-5.61-4.35-13.18,17.01-6.54-5.06,13.18-17.01-3.48-2.69,3.9-5.03,3.48,2.69.78-1.01c3.93-5.07,9.59-5.98,15.21-1.63,1.84,1.43,3.48,3.3,4.04,5.08l-5.39,3.4c-.32-1.05-1.02-2.06-2.02-2.84-1.93-1.49-3.79-1.26-5.51.96l-.75.96Z"/>
          <path class="cls-1" d="M484.5,158.35c-4.85,4.2-10.98,2.78-17.37-4.59l-12.55-14.51,28.05-24.28,11.86,13.7c6.07,7.01,6.27,13.15,1.9,16.93-2.8,2.43-6.22,2.86-9.4,1.61,1.7,3.99,1.03,8.08-2.49,11.13ZM479.53,151.23c2.36-2.05,1.93-4.82-.99-8.19l-6.55-7.57-6.93,6,6.55,7.57c2.91,3.37,5.52,4.27,7.92,2.19ZM483.32,125.65l-6.61,5.72,5.58,6.45c2.74,3.17,5.35,3.92,7.56,2.01,2.2-1.91,1.79-4.57-.95-7.73l-5.58-6.45Z"/>
          <path class="cls-1" d="M513.01,168.28l-6.4,4.15c-.33-.61-.57-1.08-.92-1.61-2.48-3.82-6.21-5-10.79-2.03l-11.29,7.33-4.5-6.94,23.92-15.52,4.3,6.62-3.16,2.05c3.41.19,6.46,2.26,8.85,5.95Z"/>
          <path class="cls-1" d="M516.4,202.7l-14.62,7.15-3.4-6.95,3.19-1.56c-3.01-.24-5.55-2.3-7.39-6.06-2.94-6-1.35-11.2,3.08-13.37,4.52-2.21,9.23-.56,13.05,7.25l2.89,5.9c3.19-1.56,4.11-4.37,2.16-8.37-1.33-2.71-3.61-5.08-5.99-6.21l3.88-5.21c3.37,1.83,6.5,5.44,8.5,9.53,3.82,7.81,2.42,14.1-5.34,17.9ZM506.24,198.47l2.62-1.28-2.49-5.09c-1.7-3.48-3.52-3.94-5.24-3.1-1.86.91-2.33,3.09-1.04,5.7,1.21,2.48,3.4,4.06,6.15,3.77Z"/>
          <path class="cls-1" d="M539.77,233.22l-30.84-2.59-2.65-8.11,23.39-20.24,2.65,8.11-15.99,13.53,20.97,1.74,2.47,7.56Z"/>
          <path class="cls-1" d="M529.38,268.74l-3.77-21.24c-3.36,1.4-4.97,4.76-4.21,9.04.53,2.97,1.79,4.96,3.96,6.56l-3.93,5.16c-3.44-2.08-5.7-5.72-6.6-10.78-1.72-9.71,3.26-17.1,11.61-18.59,8.4-1.49,15.59,3.85,17.11,12.41,1.46,8.25-2.94,15.59-11.97,17.2-.63.11-1.53.16-2.22.23ZM530.34,246.56l2.45,13.83c3.45-1.2,5.27-4.27,4.62-7.93-.66-3.71-3.37-5.97-7.08-5.9Z"/>
          <path class="cls-1" d="M547.54,291.58l-7.62.4c.02-.69.04-1.22,0-1.86-.24-4.55-2.89-7.44-8.34-7.15l-13.45.71-.44-8.26,28.48-1.5.42,7.89-3.76.2c2.86,1.87,4.47,5.18,4.7,9.57Z"/>
          <path class="cls-1" d="M545.23,328.15l-29.31-14.91c-6.69-3.22-8.48-7.27-8.13-12.4.2-2.91,1.37-6.02,3.13-7.75l5.66,3.42c-1.2,1.19-2,2.89-2.12,4.53-.16,2.27.76,3.61,3.22,4.9l.26.12,29.5-10.36-.58,8.51-19.84,6.66,18.75,9.36-.54,7.93Z"/>
          <path class="cls-1" d="M517.77,341.26l5.42,4.58c-3.05,2.38-5.86,6.43-7.08,10.71-1.4,4.89-.33,7.35,1.86,7.97,6.68,1.9,8.01-20.15,21.26-16.37,6.07,1.73,9.71,8.06,6.82,18.2-1.28,4.49-3.66,8.77-6.69,11.48l-5.54-4.34c2.83-2.77,4.72-5.93,5.62-9.09,1.4-4.89.1-7.3-2.14-7.94-6.57-1.88-7.96,20.16-21.05,16.42-5.96-1.7-9.65-8.1-6.74-18.29,1.61-5.66,4.92-10.89,8.27-13.35Z"/>
          <path class="cls-1" d="M503.61,403.84l8.92-19.64c-3.56-.74-6.79,1.11-8.59,5.07-1.25,2.75-1.33,5.1-.45,7.66l-6.16,2.03c-1.66-3.66-1.46-7.94.67-12.62,4.08-8.98,12.37-12.25,20.1-8.75,7.77,3.53,10.67,12.01,7.08,19.92-3.46,7.62-11.25,11.19-19.6,7.4-.58-.26-1.36-.73-1.96-1.07ZM516.96,386.1l-5.81,12.79c3.52.96,6.76-.54,8.3-3.92,1.56-3.43.6-6.83-2.49-8.87Z"/>
          <path class="cls-1" d="M505.63,432.97l-6.51-3.99c.41-.56.73-.98,1.06-1.53,2.38-3.89,1.84-7.77-2.82-10.62l-11.48-7.03,4.32-7.05,24.32,14.9-4.13,6.73-3.21-1.97c1.3,3.16.75,6.8-1.55,10.55Z"/>
          <path class="cls-1" d="M501.4,438.05l-4.89,6.66-22.98-16.88,4.89-6.66,22.98,16.88ZM508.91,442.32c2.09,1.54,2.49,4.4.67,6.87-1.82,2.48-4.58,3.01-6.63,1.51-2.22-1.63-2.62-4.49-.8-6.97,1.82-2.48,4.67-2.95,6.76-1.41Z"/>
          <path class="cls-1" d="M459.66,461.88l14.56-15.91c-3.16-1.81-6.8-1.05-9.73,2.16-2.04,2.23-2.84,4.44-2.8,7.14l-6.49.02c-.44-3.99,1.07-8,4.54-11.79,6.66-7.27,15.56-7.81,21.81-2.09,6.29,5.76,6.43,14.72.56,21.13-5.65,6.18-14.16,7.15-20.93.96-.47-.43-1.06-1.12-1.54-1.62ZM477.86,449.14l-9.48,10.36c3.05,2,6.6,1.58,9.1-1.15,2.54-2.78,2.68-6.31.38-9.21Z"/>
          <path class="cls-1" d="M451.21,456.99l1.69,6.32c-3.01.37-6.69,1.99-9.38,4.24-2.93,2.45-3.38,4.14-2.36,5.36,2.99,3.58,13.16-11.12,20.46-2.37,3.46,4.15,2.17,10.21-4.22,15.54-3.01,2.51-6.93,4.61-10.02,5.12l-1.65-6.28c3.18-.58,5.67-1.97,7.67-3.64,2.85-2.38,3.32-4.29,2.37-5.43-3.12-3.74-13.33,10.92-20.53,2.29-3.4-4.07-2.02-10.12,4.53-15.59,3.7-3.09,8.3-5.2,11.45-5.55Z"/>
          <path class="cls-1" d="M388.74,506.89c-2.96-5.69-.16-11.33,8.49-15.83l17.02-8.86,17.13,32.91-16.08,8.37c-8.23,4.28-14.25,3.05-16.91-2.07-1.71-3.29-1.34-6.71.6-9.52-4.28.73-8.1-.86-10.25-5ZM396.82,503.7c1.44,2.77,4.25,2.99,8.19.93l8.88-4.63-4.23-8.13-8.88,4.63c-3.95,2.06-5.43,4.38-3.96,7.2ZM420.82,513.31l-4.04-7.76-7.57,3.94c-3.71,1.93-5.05,4.3-3.7,6.89,1.35,2.58,4.03,2.8,7.74.87l7.57-3.94Z"/>
          <path class="cls-1" d="M361.82,535.22l2.67-32.78c.44-7.41,3.51-10.61,8.39-12.23,2.77-.92,6.08-1.02,8.36-.04l-1.01,6.54c-1.56-.66-3.43-.76-4.99-.24-2.16.72-3.05,2.08-3.31,4.84l-.02.29,20.78,23.36-8.1,2.69-13.7-15.83-1.54,20.9-7.54,2.51Z"/>
          <path class="cls-1" d="M302.68,514.52l1.7,22.2,9.53-19.1,3.86-.29,12.16,17.01-1.61-21.72,8.03-.6,2.75,37-7.08.53-15.55-21.96-11.93,24-7.03.52-2.85-36.99,8.03-.6Z"/>
          <path class="cls-1" d="M261.2,527.78l1.72-16.18,7.69.82-.38,3.53c1.8-2.42,4.9-3.48,9.06-3.04,6.64.71,10.2,4.82,9.68,9.72-.53,5.01-4.43,8.11-13.08,7.19l-6.54-.69c-.38,3.53,1.51,5.81,5.94,6.28,3,.32,6.22-.35,8.45-1.77l2.34,6.06c-3.34,1.88-8.06,2.61-12.59,2.13-8.64-.92-13.22-5.46-12.31-14.05ZM270.19,521.43l-.31,2.9,5.64.6c3.85.41,5.21-.89,5.41-2.78.22-2.06-1.38-3.61-4.27-3.92-2.74-.29-5.25.72-6.47,3.2Z"/>
          <path class="cls-1" d="M232.87,534.43l1.73-7.44c.66.21,1.16.38,1.78.52,4.44,1.03,7.95-.71,9.18-6.03l3.04-13.12,8.06,1.87-6.44,27.78-7.69-1.79.85-3.67c-2.58,2.23-6.21,2.86-10.5,1.86Z"/>
          <path class="cls-1" d="M220.32,511.59l5.09-2.3,2.52-6.81,7.75,2.87-13.65,36.88-7.75-2.87,7.73-20.87-15.31,6.54-9.24-3.42,15.33-7.21-6.42-19.9,9.39,3.48,4.57,13.61Z"/>
          <path class="cls-1" d="M157.06,476.06c3.55-5.34,9.84-5.62,17.96-.22l15.98,10.62-20.53,30.9-15.1-10.03c-7.73-5.13-9.56-10.99-6.36-15.81,2.05-3.09,5.23-4.42,8.62-4.07-2.71-3.39-3.16-7.51-.58-11.39ZM166.94,507.25l4.84-7.28-7.11-4.72c-3.49-2.32-6.21-2.34-7.82.09-1.61,2.43-.51,4.88,2.98,7.2l7.11,4.72ZM163.75,481.59c-1.73,2.6-.56,5.16,3.14,7.62l8.34,5.54,5.07-7.64-8.34-5.54c-3.71-2.46-6.46-2.64-8.22.01Z"/>
          <path class="cls-1" d="M129.79,459.3l11.04-11.95,5.68,5.25-2.41,2.61c2.89-.86,6.01.14,9.08,2.98,4.9,4.53,5.31,9.95,1.96,13.57-3.42,3.7-8.4,3.86-14.78-2.04l-4.83-4.46c-2.41,2.61-2.26,5.56,1.01,8.59,2.22,2.05,5.2,3.43,7.83,3.63l-1.74,6.26c-3.81-.49-8.02-2.72-11.37-5.81-6.38-5.9-7.35-12.27-1.49-18.62ZM140.79,459.57l-1.98,2.14,4.16,3.85c2.84,2.63,4.71,2.4,6,1,1.4-1.52,1.05-3.72-1.09-5.7-2.02-1.87-4.64-2.55-7.1-1.29Z"/>
          <path class="cls-1" d="M103.09,447.73l5.82-4.94c.41.56.71,1,1.12,1.48,2.95,3.48,6.8,4.17,10.97.63l10.26-8.71,5.35,6.3-21.74,18.45-5.11-6.02,2.87-2.43c-3.4.25-6.69-1.41-9.54-4.77Z"/>
          <path class="cls-1" d="M95.31,414.07l13.57-8.98,4.27,6.45-2.96,1.96c3.01-.15,5.8,1.56,8.11,5.06,3.69,5.57,2.79,10.93-1.33,13.65-4.2,2.78-9.08,1.75-13.87-5.5l-3.63-5.48c-2.96,1.96-3.52,4.87-1.06,8.58,1.67,2.52,4.23,4.57,6.74,5.39l-3.18,5.66c-3.58-1.38-7.14-4.55-9.66-8.35-4.8-7.25-4.22-13.67,2.99-18.44ZM105.93,416.96l-2.43,1.61,3.13,4.73c2.14,3.23,4,3.45,5.59,2.4,1.72-1.14,1.91-3.36.3-5.79-1.52-2.3-3.9-3.59-6.59-2.95Z"/>
          <path class="cls-1" d="M78.72,380.16l14.82-6.84,3.47,7.51-13.67,6.31c-4.19,1.93-5.22,4.75-3.69,8.07,1.67,3.61,5.08,5.19,9.84,2.99l12.8-5.91,3.47,7.51-25.89,11.95-3.31-7.17,3.03-1.4c-3.15-1-5.75-3.48-7.37-6.99-2.82-6.11-1.39-12.38,6.5-16.02Z"/>
          <path class="cls-1" d="M78.26,373.16c-8.27,2.32-15.92-2.41-18.38-11.13-2.45-8.73,1.64-16.7,9.91-19.02s15.91,2.36,18.36,11.08c2.45,8.73-1.63,16.75-9.89,19.07ZM72.06,351.07c-4.75,1.33-6.76,5.15-5.64,9.13,1.12,3.98,4.83,6.24,9.58,4.91,4.75-1.33,6.74-5.2,5.63-9.18-1.12-3.98-4.82-6.19-9.57-4.86Z"/>
          <path class="cls-1" d="M51.09,311.37l29.85,8.19,1.12,8.46-26.7,15.61-1.12-8.46,18.2-10.37-20.3-5.55-1.04-7.88Z"/>
        </g>
      </g>
    </g>
  </g>
</svg>